<svg id="my-svg" width="100%" xmlns="http://www.w3.org/2000/svg" xmlns:xlink="http://www.w3.org/1999/xlink" class="classDiagram" style="max-width: 685.383px; background-color: white;" viewBox="0 0 685.3828125 860" role="graphics-document document" aria-roledescription="class"><style>#my-svg{font-family:"trebuchet ms",verdana,arial,sans-serif;font-size:16px;fill:#333;}@keyframes edge-animation-frame{from{stroke-dashoffset:0;}}@keyframes dash{to{stroke-dashoffset:0;}}#my-svg .edge-animation-slow{stroke-dasharray:9,5!important;stroke-dashoffset:900;animation:dash 50s linear infinite;stroke-linecap:round;}#my-svg .edge-animation-fast{stroke-dasharray:9,5!important;stroke-dashoffset:900;animation:dash 20s linear infinite;stroke-linecap:round;}#my-svg .error-icon{fill:#552222;}#my-svg .error-text{fill:#552222;stroke:#552222;}#my-svg .edge-thickness-normal{stroke-width:1px;}#my-svg .edge-thickness-thick{stroke-width:3.5px;}#my-svg .edge-pattern-solid{stroke-dasharray:0;}#my-svg .edge-thickness-invisible{stroke-width:0;fill:none;}#my-svg .edge-pattern-dashed{stroke-dasharray:3;}#my-svg .edge-pattern-dotted{stroke-dasharray:2;}#my-svg .marker{fill:#333333;stroke:#333333;}#my-svg .marker.cross{stroke:#333333;}#my-svg svg{font-family:"trebuchet ms",verdana,arial,sans-serif;font-size:16px;}#my-svg p{margin:0;}#my-svg g.classGroup text{fill:#9370DB;stroke:none;font-family:"trebuchet ms",verdana,arial,sans-serif;font-size:10px;}#my-svg g.classGroup text .title{font-weight:bolder;}#my-svg .cluster-label text{fill:#333;}#my-svg .cluster-label span{color:#333;}#my-svg .cluster-label span p{background-color:transparent;}#my-svg .cluster rect{fill:#ffffde;stroke:#aaaa33;stroke-width:1px;}#my-svg .cluster text{fill:#333;}#my-svg .cluster span{color:#333;}#my-svg .nodeLabel,#my-svg .edgeLabel{color:#131300;}#my-svg .edgeLabel .label rect{fill:#ECECFF;}#my-svg .label text{fill:#131300;}#my-svg .labelBkg{background:#ECECFF;}#my-svg .edgeLabel .label span{background:#ECECFF;}#my-svg .classTitle{font-weight:bolder;}#my-svg .node rect,#my-svg .node circle,#my-svg .node ellipse,#my-svg .node polygon,#my-svg .node path{fill:#ECECFF;stroke:#9370DB;stroke-width:1px;}#my-svg .divider{stroke:#9370DB;stroke-width:1;}#my-svg g.clickable{cursor:pointer;}#my-svg g.classGroup rect{fill:#ECECFF;stroke:#9370DB;}#my-svg g.classGroup line{stroke:#9370DB;stroke-width:1;}#my-svg .classLabel .box{stroke:none;stroke-width:0;fill:#ECECFF;opacity:0.5;}#my-svg .classLabel .label{fill:#9370DB;font-size:10px;}#my-svg .relation{stroke:#333333;stroke-width:1;fill:none;}#my-svg .dashed-line{stroke-dasharray:3;}#my-svg .dotted-line{stroke-dasharray:1 2;}#my-svg #compositionStart,#my-svg .composition{fill:#333333!important;stroke:#333333!important;stroke-width:1;}#my-svg #compositionEnd,#my-svg .composition{fill:#333333!important;stroke:#333333!important;stroke-width:1;}#my-svg #dependencyStart,#my-svg .dependency{fill:#333333!important;stroke:#333333!important;stroke-width:1;}#my-svg #dependencyStart,#my-svg .dependency{fill:#333333!important;stroke:#333333!important;stroke-width:1;}#my-svg #extensionStart,#my-svg .extension{fill:transparent!important;stroke:#333333!important;stroke-width:1;}#my-svg #extensionEnd,#my-svg .extension{fill:transparent!important;stroke:#333333!important;stroke-width:1;}#my-svg #aggregationStart,#my-svg .aggregation{fill:transparent!important;stroke:#333333!important;stroke-width:1;}#my-svg #aggregationEnd,#my-svg .aggregation{fill:transparent!important;stroke:#333333!important;stroke-width:1;}#my-svg #lollipopStart,#my-svg .lollipop{fill:#ECECFF!important;stroke:#333333!important;stroke-width:1;}#my-svg #lollipopEnd,#my-svg .lollipop{fill:#ECECFF!important;stroke:#333333!important;stroke-width:1;}#my-svg .edgeTerminals{font-size:11px;line-height:initial;}#my-svg .classTitleText{text-anchor:middle;font-size:18px;fill:#333;}#my-svg .label-icon{display:inline-block;height:1em;overflow:visible;vertical-align:-0.125em;}#my-svg .node .label-icon path{fill:currentColor;stroke:revert;stroke-width:revert;}#my-svg :root{--mermaid-font-family:"trebuchet ms",verdana,arial,sans-serif;}</style><g><defs><marker id="my-svg_class-aggregationStart" class="marker aggregation class" refX="18" refY="7" markerWidth="190" markerHeight="240" orient="auto"><path d="M 18,7 L9,13 L1,7 L9,1 Z"/></marker></defs><defs><marker id="my-svg_class-aggregationEnd" class="marker aggregation class" refX="1" refY="7" markerWidth="20" markerHeight="28" orient="auto"><path d="M 18,7 L9,13 L1,7 L9,1 Z"/></marker></defs><defs><marker id="my-svg_class-extensionStart" class="marker extension class" refX="18" refY="7" markerWidth="190" markerHeight="240" orient="auto"><path d="M 1,7 L18,13 V 1 Z"/></marker></defs><defs><marker id="my-svg_class-extensionEnd" class="marker extension class" refX="1" refY="7" markerWidth="20" markerHeight="28" orient="auto"><path d="M 1,1 V 13 L18,7 Z"/></marker></defs><defs><marker id="my-svg_class-compositionStart" class="marker composition class" refX="18" refY="7" markerWidth="190" markerHeight="240" orient="auto"><path d="M 18,7 L9,13 L1,7 L9,1 Z"/></marker></defs><defs><marker id="my-svg_class-compositionEnd" class="marker composition class" refX="1" refY="7" markerWidth="20" markerHeight="28" orient="auto"><path d="M 18,7 L9,13 L1,7 L9,1 Z"/></marker></defs><defs><marker id="my-svg_class-dependencyStart" class="marker dependency class" refX="6" refY="7" markerWidth="190" markerHeight="240" orient="auto"><path d="M 5,7 L9,13 L1,7 L9,1 Z"/></marker></defs><defs><marker id="my-svg_class-dependencyEnd" class="marker dependency class" refX="13" refY="7" markerWidth="20" markerHeight="28" orient="auto"><path d="M 18,7 L9,13 L14,7 L9,1 Z"/></marker></defs><defs><marker id="my-svg_class-lollipopStart" class="marker lollipop class" refX="13" refY="7" markerWidth="190" markerHeight="240" orient="auto"><circle fill="transparent" cx="7" cy="7" r="6"/></marker></defs><defs><marker id="my-svg_class-lollipopEnd" class="marker lollipop class" refX="1" refY="7" markerWidth="190" markerHeight="240" orient="auto"><circle fill="transparent" cx="7" cy="7" r="6"/></marker></defs><g class="root"><g class="clusters"/><g class="edgePaths"><path d="M99.469,248L99.469,252.167C99.469,256.333,99.469,264.667,99.469,276C99.469,287.333,99.469,301.667,99.469,308.833L99.469,316" id="id_User_Session_1" class="edge-thickness-normal edge-pattern-solid relation" style=";;;" data-edge="true" data-et="edge" data-id="id_User_Session_1" data-points="W3sieCI6OTkuNDY4NzUsInkiOjI0OH0seyJ4Ijo5OS40Njg3NSwieSI6MjczfSx7IngiOjk5LjQ2ODc1LCJ5IjozMjJ9XQ==" marker-end="url(#my-svg_class-dependencyEnd)"/><path d="M581.133,236L581.133,242.167C581.133,248.333,581.133,260.667,581.133,270C581.133,279.333,581.133,285.667,581.133,288.833L581.133,292" id="id_Trainer_FitnessClass_2" class="edge-thickness-normal edge-pattern-solid relation" style=";;;" data-edge="true" data-et="edge" data-id="id_Trainer_FitnessClass_2" data-points="W3sieCI6NTgxLjEzMjgxMjUsInkiOjIzNn0seyJ4Ijo1ODEuMTMyODEyNSwieSI6MjczfSx7IngiOjU4MS4xMzI4MTI1LCJ5IjoyOTh9XQ==" marker-end="url(#my-svg_class-dependencyEnd)"/><path d="M581.133,562L581.133,566.167C581.133,570.333,581.133,578.667,581.133,586C581.133,593.333,581.133,599.667,581.133,602.833L581.133,606" id="id_FitnessClass_Booking_3" class="edge-thickness-normal edge-pattern-solid relation" style=";;;" data-edge="true" data-et="edge" data-id="id_FitnessClass_Booking_3" data-points="W3sieCI6NTgxLjEzMjgxMjUsInkiOjU2Mn0seyJ4Ijo1ODEuMTMyODEyNSwieSI6NTg3fSx7IngiOjU4MS4xMzI4MTI1LCJ5Ijo2MTJ9XQ==" marker-end="url(#my-svg_class-dependencyEnd)"/><path d="M334.516,248L334.516,252.167C334.516,256.333,334.516,264.667,334.516,276C334.516,287.333,334.516,301.667,334.516,308.833L334.516,316" id="id_Member_Receipt_4" class="edge-thickness-normal edge-pattern-solid relation" style=";;;" data-edge="true" data-et="edge" data-id="id_Member_Receipt_4" data-points="W3sieCI6MzM0LjUxNTYyNSwieSI6MjQ4fSx7IngiOjMzNC41MTU2MjUsInkiOjI3M30seyJ4IjozMzQuNTE1NjI1LCJ5IjozMjJ9XQ==" marker-end="url(#my-svg_class-dependencyEnd)"/><path d="M334.516,538L334.516,546.167C334.516,554.333,334.516,570.667,334.516,582C334.516,593.333,334.516,599.667,334.516,602.833L334.516,606" id="id_Receipt_Payment_5" class="edge-thickness-normal edge-pattern-solid relation" style=";;;" data-edge="true" data-et="edge" data-id="id_Receipt_Payment_5" data-points="W3sieCI6MzM0LjUxNTYyNSwieSI6NTM4fSx7IngiOjMzNC41MTU2MjUsInkiOjU4N30seyJ4IjozMzQuNTE1NjI1LCJ5Ijo2MTJ9XQ==" marker-end="url(#my-svg_class-dependencyEnd)"/></g><g class="edgeLabels"><g class="edgeLabel"><g class="label" data-id="id_User_Session_1" transform="translate(0, 0)"><foreignObject width="0" height="0"><div xmlns="http://www.w3.org/1999/xhtml" class="labelBkg" style="display: table-cell; white-space: nowrap; line-height: 1.5; max-width: 200px; text-align: center;"><span class="edgeLabel"></span></div></foreignObject></g></g><g class="edgeLabel"><g class="label" data-id="id_Trainer_FitnessClass_2" transform="translate(0, 0)"><foreignObject width="0" height="0"><div xmlns="http://www.w3.org/1999/xhtml" class="labelBkg" style="display: table-cell; white-space: nowrap; line-height: 1.5; max-width: 200px; text-align: center;"><span class="edgeLabel"></span></div></foreignObject></g></g><g class="edgeLabel"><g class="label" data-id="id_FitnessClass_Booking_3" transform="translate(0, 0)"><foreignObject width="0" height="0"><div xmlns="http://www.w3.org/1999/xhtml" class="labelBkg" style="display: table-cell; white-space: nowrap; line-height: 1.5; max-width: 200px; text-align: center;"><span class="edgeLabel"></span></div></foreignObject></g></g><g class="edgeLabel"><g class="label" data-id="id_Member_Receipt_4" transform="translate(0, 0)"><foreignObject width="0" height="0"><div xmlns="http://www.w3.org/1999/xhtml" class="labelBkg" style="display: table-cell; white-space: nowrap; line-height: 1.5; max-width: 200px; text-align: center;"><span class="edgeLabel"></span></div></foreignObject></g></g><g class="edgeLabel"><g class="label" data-id="id_Receipt_Payment_5" transform="translate(0, 0)"><foreignObject width="0" height="0"><div xmlns="http://www.w3.org/1999/xhtml" class="labelBkg" style="display: table-cell; white-space: nowrap; line-height: 1.5; max-width: 200px; text-align: center;"><span class="edgeLabel"></span></div></foreignObject></g></g><g class="edgeTerminals" transform="translate(84.46875, 265.5)"><g class="inner" transform="translate(-2.890625, -8.25)"><foreignObject width="5.78125" height="16.5" style="width: 9px; height: 12px;"><div xmlns="http://www.w3.org/1999/xhtml" style="display: table-cell; white-space: nowrap; line-height: 1.5;"><span class="edgeLabel"><p>1</p></span></div></foreignObject></g></g><g class="edgeTerminals" transform="translate(566.13281125, 253.49999892857142)"><g class="inner" transform="translate(-2.890625, -8.25)"><foreignObject width="5.78125" height="16.5" style="width: 9px; height: 12px;"><div xmlns="http://www.w3.org/1999/xhtml" style="display: table-cell; white-space: nowrap; line-height: 1.5;"><span class="edgeLabel"><p>1</p></span></div></foreignObject></g></g><g class="edgeTerminals" transform="translate(566.13281125, 579.4999989285714)"><g class="inner" transform="translate(-2.890625, -8.25)"><foreignObject width="5.78125" height="16.5" style="width: 9px; height: 12px;"><div xmlns="http://www.w3.org/1999/xhtml" style="display: table-cell; white-space: nowrap; line-height: 1.5;"><span class="edgeLabel"><p>1</p></span></div></foreignObject></g></g><g class="edgeTerminals" transform="translate(319.51562750000016, 265.5000021428571)"><g class="inner" transform="translate(-2.890625, -8.25)"><foreignObject width="5.78125" height="16.5" style="width: 9px; height: 12px;"><div xmlns="http://www.w3.org/1999/xhtml" style="display: table-cell; white-space: nowrap; line-height: 1.5;"><span class="edgeLabel"><p>1</p></span></div></foreignObject></g></g><g class="edgeTerminals" transform="translate(319.51562750000016, 555.5000021428572)"><g class="inner" transform="translate(-2.890625, -8.25)"><foreignObject width="5.78125" height="16.5" style="width: 9px; height: 12px;"><div xmlns="http://www.w3.org/1999/xhtml" style="display: table-cell; white-space: nowrap; line-height: 1.5;"><span class="edgeLabel"><p>1</p></span></div></foreignObject></g></g><g class="edgeTerminals" transform="translate(109.46875, 299.5)"><g class="inner" transform="translate(-8.9453125, -8.25)"/><foreignObject width="17.890625" height="16.5" style="width: 36px; height: 12px;"><div xmlns="http://www.w3.org/1999/xhtml" style="display: table-cell; white-space: nowrap; line-height: 1.5;"><span class="edgeLabel"><p>0..*</p></span></div></foreignObject></g><g class="edgeTerminals" transform="translate(591.13281125, 275.4999989285714)"><g class="inner" transform="translate(-8.9453125, -8.25)"/><foreignObject width="17.890625" height="16.5" style="width: 36px; height: 12px;"><div xmlns="http://www.w3.org/1999/xhtml" style="display: table-cell; white-space: nowrap; line-height: 1.5;"><span class="edgeLabel"><p>0..*</p></span></div></foreignObject></g><g class="edgeTerminals" transform="translate(591.13281125, 589.4999989285714)"><g class="inner" transform="translate(-8.9453125, -8.25)"/><foreignObject width="17.890625" height="16.5" style="width: 36px; height: 12px;"><div xmlns="http://www.w3.org/1999/xhtml" style="display: table-cell; white-space: nowrap; line-height: 1.5;"><span class="edgeLabel"><p>0..*</p></span></div></foreignObject></g><g class="edgeTerminals" transform="translate(344.5156274999998, 299.5000021428571)"><g class="inner" transform="translate(-8.9453125, -8.25)"/><foreignObject width="17.890625" height="16.5" style="width: 36px; height: 12px;"><div xmlns="http://www.w3.org/1999/xhtml" style="display: table-cell; white-space: nowrap; line-height: 1.5;"><span class="edgeLabel"><p>0..*</p></span></div></foreignObject></g><g class="edgeTerminals" transform="translate(344.5156274999998, 589.5000021428572)"><g class="inner" transform="translate(-8.9453125, -8.25)"/><foreignObject width="17.890625" height="16.5" style="width: 36px; height: 12px;"><div xmlns="http://www.w3.org/1999/xhtml" style="display: table-cell; white-space: nowrap; line-height: 1.5;"><span class="edgeLabel"><p>0..*</p></span></div></foreignObject></g></g><g class="nodes"><g class="node default" id="classId-User-0" transform="translate(99.46875, 128)"><g class="basic label-container"><path d="M-83.73046875 -120 L83.73046875 -120 L83.73046875 120 L-83.73046875 120" stroke="none" stroke-width="0" fill="#ECECFF" style=""/><path d="M-83.73046875 -120 C-46.592088671247005 -120, -9.45370859249401 -120, 83.73046875 -120 M-83.73046875 -120 C-18.160003592387497 -120, 47.410461565225006 -120, 83.73046875 -120 M83.73046875 -120 C83.73046875 -61.51479322228785, 83.73046875 -3.029586444575699, 83.73046875 120 M83.73046875 -120 C83.73046875 -56.12148762011431, 83.73046875 7.757024759771383, 83.73046875 120 M83.73046875 120 C30.876731040984005 120, -21.97700666803199 120, -83.73046875 120 M83.73046875 120 C50.00912209772174 120, 16.287775445443486 120, -83.73046875 120 M-83.73046875 120 C-83.73046875 42.871268043030355, -83.73046875 -34.25746391393929, -83.73046875 -120 M-83.73046875 120 C-83.73046875 35.4099174824929, -83.73046875 -49.1801650350142, -83.73046875 -120" stroke="#9370DB" stroke-width="1.3" fill="none" stroke-dasharray="0 0" style=""/></g><g class="annotation-group text" transform="translate(0, -96)"/><g class="label-group text" transform="translate(-16.8828125, -96)"><g class="label" style="font-weight: bolder" transform="translate(0,-12)"><foreignObject width="33.765625" height="24"><div xmlns="http://www.w3.org/1999/xhtml" style="display: table-cell; white-space: nowrap; line-height: 1.5; max-width: 80px; text-align: center;"><span class="nodeLabel markdown-node-label" style=""><p>User</p></span></div></foreignObject></g></g><g class="members-group text" transform="translate(-71.73046875, -48)"><g class="label" style="" transform="translate(0,-12)"><foreignObject width="53.90625" height="24"><div xmlns="http://www.w3.org/1999/xhtml" style="display: table-cell; white-space: nowrap; line-height: 1.5; max-width: 105px; text-align: center;"><span class="nodeLabel markdown-node-label" style=""><p>+id: i64</p></span></div></foreignObject></g><g class="label" style="" transform="translate(0,12)"><foreignObject width="99.84375" height="24"><div xmlns="http://www.w3.org/1999/xhtml" style="display: table-cell; white-space: nowrap; line-height: 1.5; max-width: 146px; text-align: center;"><span class="nodeLabel markdown-node-label" style=""><p>+name: String</p></span></div></foreignObject></g><g class="label" style="" transform="translate(0,36)"><foreignObject width="100.375" height="24"><div xmlns="http://www.w3.org/1999/xhtml" style="display: table-cell; white-space: nowrap; line-height: 1.5; max-width: 147px; text-align: center;"><span class="nodeLabel markdown-node-label" style=""><p>+email: String</p></span></div></foreignObject></g><g class="label" style="" transform="translate(0,60)"><foreignObject width="104.390625" height="24"><div xmlns="http://www.w3.org/1999/xhtml" style="display: table-cell; white-space: nowrap; line-height: 1.5; max-width: 150px; text-align: center;"><span class="nodeLabel markdown-node-label" style=""><p>+phone: String</p></span></div></foreignObject></g><g class="label" style="" transform="translate(0,84)"><foreignObject width="88.9375" height="24"><div xmlns="http://www.w3.org/1999/xhtml" style="display: table-cell; white-space: nowrap; line-height: 1.5; max-width: 136px; text-align: center;"><span class="nodeLabel markdown-node-label" style=""><p>+role: String</p></span></div></foreignObject></g><g class="label" style="" transform="translate(0,108)"><foreignObject width="126.578125" height="24"><div xmlns="http://www.w3.org/1999/xhtml" style="display: table-cell; white-space: nowrap; line-height: 1.5; max-width: 171px; text-align: center;"><span class="nodeLabel markdown-node-label" style=""><p>+password: String</p></span></div></foreignObject></g></g><g class="methods-group text" transform="translate(-71.73046875, 120)"/><g class="divider" style=""><path d="M-83.73046875 -72 C-19.196618410246955 -72, 45.33723192950609 -72, 83.73046875 -72 M-83.73046875 -72 C-43.70473864089217 -72, -3.6790085317843335 -72, 83.73046875 -72" stroke="#9370DB" stroke-width="1.3" fill="none" stroke-dasharray="0 0" style=""/></g><g class="divider" style=""><path d="M-83.73046875 96 C-31.42337835857309 96, 20.883712032853822 96, 83.73046875 96 M-83.73046875 96 C-21.88798554054422 96, 39.95449766891156 96, 83.73046875 96" stroke="#9370DB" stroke-width="1.3" fill="none" stroke-dasharray="0 0" style=""/></g></g><g class="node default" id="classId-Session-1" transform="translate(99.46875, 430)"><g class="basic label-container"><path d="M-91.46875 -108 L91.46875 -108 L91.46875 108 L-91.46875 108" stroke="none" stroke-width="0" fill="#ECECFF" style=""/><path d="M-91.46875 -108 C-29.692460996747634 -108, 32.08382800650473 -108, 91.46875 -108 M-91.46875 -108 C-51.78646434099062 -108, -12.104178681981239 -108, 91.46875 -108 M91.46875 -108 C91.46875 -42.08585054445261, 91.46875 23.828298911094777, 91.46875 108 M91.46875 -108 C91.46875 -54.6857848904447, 91.46875 -1.371569780889402, 91.46875 108 M91.46875 108 C30.116499990744522 108, -31.235750018510956 108, -91.46875 108 M91.46875 108 C28.82701886356709 108, -33.81471227286582 108, -91.46875 108 M-91.46875 108 C-91.46875 44.770213677796264, -91.46875 -18.459572644407473, -91.46875 -108 M-91.46875 108 C-91.46875 33.14465036285627, -91.46875 -41.710699274287464, -91.46875 -108" stroke="#9370DB" stroke-width="1.3" fill="none" stroke-dasharray="0 0" style=""/></g><g class="annotation-group text" transform="translate(0, -84)"/><g class="label-group text" transform="translate(-27.21875, -84)"><g class="label" style="font-weight: bolder" transform="translate(0,-12)"><foreignObject width="54.4375" height="24"><div xmlns="http://www.w3.org/1999/xhtml" style="display: table-cell; white-space: nowrap; line-height: 1.5; max-width: 99px; text-align: center;"><span class="nodeLabel markdown-node-label" style=""><p>Session</p></span></div></foreignObject></g></g><g class="members-group text" transform="translate(-79.46875, -36)"><g class="label" style="" transform="translate(0,-12)"><foreignObject width="53.90625" height="24"><div xmlns="http://www.w3.org/1999/xhtml" style="display: table-cell; white-space: nowrap; line-height: 1.5; max-width: 105px; text-align: center;"><span class="nodeLabel markdown-node-label" style=""><p>+id: i64</p></span></div></foreignObject></g><g class="label" style="" transform="translate(0,12)"><foreignObject width="83.96875" height="24"><div xmlns="http://www.w3.org/1999/xhtml" style="display: table-cell; white-space: nowrap; line-height: 1.5; max-width: 132px; text-align: center;"><span class="nodeLabel markdown-node-label" style=""><p>+userId: i64</p></span></div></foreignObject></g><g class="label" style="" transform="translate(0,36)"><foreignObject width="101.15625" height="24"><div xmlns="http://www.w3.org/1999/xhtml" style="display: table-cell; white-space: nowrap; line-height: 1.5; max-width: 147px; text-align: center;"><span class="nodeLabel markdown-node-label" style=""><p>+token: String</p></span></div></foreignObject></g><g class="label" style="" transform="translate(0,60)"><foreignObject width="131.71875" height="24"><div xmlns="http://www.w3.org/1999/xhtml" style="display: table-cell; white-space: nowrap; line-height: 1.5; max-width: 173px; text-align: center;"><span class="nodeLabel markdown-node-label" style=""><p>+createdAt: String</p></span></div></foreignObject></g><g class="label" style="" transform="translate(0,84)"><foreignObject width="128.109375" height="24"><div xmlns="http://www.w3.org/1999/xhtml" style="display: table-cell; white-space: nowrap; line-height: 1.5; max-width: 173px; text-align: center;"><span class="nodeLabel markdown-node-label" style=""><p>+expiresAt: String</p></span></div></foreignObject></g></g><g class="methods-group text" transform="translate(-79.46875, 108)"/><g class="divider" style=""><path d="M-91.46875 -60 C-43.706827127032234 -60, 4.055095745935532 -60, 91.46875 -60 M-91.46875 -60 C-44.74222911669721 -60, 1.9842917666055797 -60, 91.46875 -60" stroke="#9370DB" stroke-width="1.3" fill="none" stroke-dasharray="0 0" style=""/></g><g class="divider" style=""><path d="M-91.46875 84 C-43.92604565993234 84, 3.616658680135316 84, 91.46875 84 M-91.46875 84 C-33.2826711551759 84, 24.903407689648205 84, 91.46875 84" stroke="#9370DB" stroke-width="1.3" fill="none" stroke-dasharray="0 0" style=""/></g></g><g class="node default" id="classId-Member-2" transform="translate(334.515625, 128)"><g class="basic label-container"><path d="M-101.31640625 -120 L101.31640625 -120 L101.31640625 120 L-101.31640625 120" stroke="none" stroke-width="0" fill="#ECECFF" style=""/><path d="M-101.31640625 -120 C-30.913012388340675 -120, 39.49038147331865 -120, 101.31640625 -120 M-101.31640625 -120 C-59.46087957297302 -120, -17.60535289594604 -120, 101.31640625 -120 M101.31640625 -120 C101.31640625 -56.79937037855645, 101.31640625 6.401259242887093, 101.31640625 120 M101.31640625 -120 C101.31640625 -50.20290297419494, 101.31640625 19.594194051610117, 101.31640625 120 M101.31640625 120 C35.80772647395966 120, -29.700953302080677 120, -101.31640625 120 M101.31640625 120 C35.55188881499862 120, -30.21262862000276 120, -101.31640625 120 M-101.31640625 120 C-101.31640625 41.20487859662808, -101.31640625 -37.590242806743845, -101.31640625 -120 M-101.31640625 120 C-101.31640625 44.83594596764786, -101.31640625 -30.32810806470428, -101.31640625 -120" stroke="#9370DB" stroke-width="1.3" fill="none" stroke-dasharray="0 0" style=""/></g><g class="annotation-group text" transform="translate(0, -96)"/><g class="label-group text" transform="translate(-30.1015625, -96)"><g class="label" style="font-weight: bolder" transform="translate(0,-12)"><foreignObject width="60.203125" height="24"><div xmlns="http://www.w3.org/1999/xhtml" style="display: table-cell; white-space: nowrap; line-height: 1.5; max-width: 104px; text-align: center;"><span class="nodeLabel markdown-node-label" style=""><p>Member</p></span></div></foreignObject></g></g><g class="members-group text" transform="translate(-89.31640625, -48)"><g class="label" style="" transform="translate(0,-12)"><foreignObject width="53.90625" height="24"><div xmlns="http://www.w3.org/1999/xhtml" style="display: table-cell; white-space: nowrap; line-height: 1.5; max-width: 105px; text-align: center;"><span class="nodeLabel markdown-node-label" style=""><p>+id: i64</p></span></div></foreignObject></g><g class="label" style="" transform="translate(0,12)"><foreignObject width="99.84375" height="24"><div xmlns="http://www.w3.org/1999/xhtml" style="display: table-cell; white-space: nowrap; line-height: 1.5; max-width: 146px; text-align: center;"><span class="nodeLabel markdown-node-label" style=""><p>+name: String</p></span></div></foreignObject></g><g class="label" style="" transform="translate(0,36)"><foreignObject width="100.375" height="24"><div xmlns="http://www.w3.org/1999/xhtml" style="display: table-cell; white-space: nowrap; line-height: 1.5; max-width: 147px; text-align: center;"><span class="nodeLabel markdown-node-label" style=""><p>+email: String</p></span></div></foreignObject></g><g class="label" style="" transform="translate(0,60)"><foreignObject width="104.390625" height="24"><div xmlns="http://www.w3.org/1999/xhtml" style="display: table-cell; white-space: nowrap; line-height: 1.5; max-width: 150px; text-align: center;"><span class="nodeLabel markdown-node-label" style=""><p>+phone: String</p></span></div></foreignObject></g><g class="label" style="" transform="translate(0,84)"><foreignObject width="148.53125" height="24"><div xmlns="http://www.w3.org/1999/xhtml" style="display: table-cell; white-space: nowrap; line-height: 1.5; max-width: 190px; text-align: center;"><span class="nodeLabel markdown-node-label" style=""><p>+membership: String</p></span></div></foreignObject></g><g class="label" style="" transform="translate(0,108)"><foreignObject width="103.46875" height="24"><div xmlns="http://www.w3.org/1999/xhtml" style="display: table-cell; white-space: nowrap; line-height: 1.5; max-width: 147px; text-align: center;"><span class="nodeLabel markdown-node-label" style=""><p>+status: String</p></span></div></foreignObject></g></g><g class="methods-group text" transform="translate(-89.31640625, 120)"/><g class="divider" style=""><path d="M-101.31640625 -72 C-60.050795800367105 -72, -18.78518535073421 -72, 101.31640625 -72 M-101.31640625 -72 C-27.321449183138952 -72, 46.673507883722095 -72, 101.31640625 -72" stroke="#9370DB" stroke-width="1.3" fill="none" stroke-dasharray="0 0" style=""/></g><g class="divider" style=""><path d="M-101.31640625 96 C-38.157358499915325 96, 25.00168925016935 96, 101.31640625 96 M-101.31640625 96 C-25.510946118167766 96, 50.29451401366447 96, 101.31640625 96" stroke="#9370DB" stroke-width="1.3" fill="none" stroke-dasharray="0 0" style=""/></g></g><g class="node default" id="classId-Trainer-3" transform="translate(581.1328125, 128)"><g class="basic label-container"><path d="M-95.30078125 -108 L95.30078125 -108 L95.30078125 108 L-95.30078125 108" stroke="none" stroke-width="0" fill="#ECECFF" style=""/><path d="M-95.30078125 -108 C-37.273133599828874 -108, 20.75451405034225 -108, 95.30078125 -108 M-95.30078125 -108 C-38.61102017234036 -108, 18.07874090531928 -108, 95.30078125 -108 M95.30078125 -108 C95.30078125 -60.50498915560021, 95.30078125 -13.009978311200413, 95.30078125 108 M95.30078125 -108 C95.30078125 -41.91072538764833, 95.30078125 24.178549224703346, 95.30078125 108 M95.30078125 108 C41.78442172191096 108, -11.731937806178081 108, -95.30078125 108 M95.30078125 108 C26.738236331538914 108, -41.82430858692217 108, -95.30078125 108 M-95.30078125 108 C-95.30078125 25.10339219984678, -95.30078125 -57.79321560030644, -95.30078125 -108 M-95.30078125 108 C-95.30078125 55.11610580740659, -95.30078125 2.232211614813181, -95.30078125 -108" stroke="#9370DB" stroke-width="1.3" fill="none" stroke-dasharray="0 0" style=""/></g><g class="annotation-group text" transform="translate(0, -84)"/><g class="label-group text" transform="translate(-26.6328125, -84)"><g class="label" style="font-weight: bolder" transform="translate(0,-12)"><foreignObject width="53.265625" height="24"><div xmlns="http://www.w3.org/1999/xhtml" style="display: table-cell; white-space: nowrap; line-height: 1.5; max-width: 97px; text-align: center;"><span class="nodeLabel markdown-node-label" style=""><p>Trainer</p></span></div></foreignObject></g></g><g class="members-group text" transform="translate(-83.30078125, -36)"><g class="label" style="" transform="translate(0,-12)"><foreignObject width="53.90625" height="24"><div xmlns="http://www.w3.org/1999/xhtml" style="display: table-cell; white-space: nowrap; line-height: 1.5; max-width: 105px; text-align: center;"><span class="nodeLabel markdown-node-label" style=""><p>+id: i64</p></span></div></foreignObject></g><g class="label" style="" transform="translate(0,12)"><foreignObject width="99.84375" height="24"><div xmlns="http://www.w3.org/1999/xhtml" style="display: table-cell; white-space: nowrap; line-height: 1.5; max-width: 146px; text-align: center;"><span class="nodeLabel markdown-node-label" style=""><p>+name: String</p></span></div></foreignObject></g><g class="label" style="" transform="translate(0,36)"><foreignObject width="124.640625" height="24"><div xmlns="http://www.w3.org/1999/xhtml" style="display: table-cell; white-space: nowrap; line-height: 1.5; max-width: 168px; text-align: center;"><span class="nodeLabel markdown-node-label" style=""><p>+specialty: String</p></span></div></foreignObject></g><g class="label" style="" transform="translate(0,60)"><foreignObject width="139.96875" height="24"><div xmlns="http://www.w3.org/1999/xhtml" style="display: table-cell; white-space: nowrap; line-height: 1.5; max-width: 180px; text-align: center;"><span class="nodeLabel markdown-node-label" style=""><p>+experience: String</p></span></div></foreignObject></g><g class="label" style="" transform="translate(0,84)"><foreignObject width="84.09375" height="24"><div xmlns="http://www.w3.org/1999/xhtml" style="display: table-cell; white-space: nowrap; line-height: 1.5; max-width: 131px; text-align: center;"><span class="nodeLabel markdown-node-label" style=""><p>+rating: f64</p></span></div></foreignObject></g></g><g class="methods-group text" transform="translate(-83.30078125, 108)"/><g class="divider" style=""><path d="M-95.30078125 -60 C-38.59450625040942 -60, 18.111768749181167 -60, 95.30078125 -60 M-95.30078125 -60 C-41.98362895136152 -60, 11.333523347276966 -60, 95.30078125 -60" stroke="#9370DB" stroke-width="1.3" fill="none" stroke-dasharray="0 0" style=""/></g><g class="divider" style=""><path d="M-95.30078125 84 C-52.33405685868486 84, -9.367332467369721 84, 95.30078125 84 M-95.30078125 84 C-41.1211377272475 84, 13.058505795504999 84, 95.30078125 84" stroke="#9370DB" stroke-width="1.3" fill="none" stroke-dasharray="0 0" style=""/></g></g><g class="node default" id="classId-FitnessClass-4" transform="translate(581.1328125, 430)"><g class="basic label-container"><path d="M-96.25 -132 L96.25 -132 L96.25 132 L-96.25 132" stroke="none" stroke-width="0" fill="#ECECFF" style=""/><path d="M-96.25 -132 C-49.44470404853912 -132, -2.6394080970782454 -132, 96.25 -132 M-96.25 -132 C-56.228190925879446 -132, -16.20638185175889 -132, 96.25 -132 M96.25 -132 C96.25 -43.47500543309937, 96.25 45.04998913380126, 96.25 132 M96.25 -132 C96.25 -33.10866948196005, 96.25 65.7826610360799, 96.25 132 M96.25 132 C41.49930893113595 132, -13.2513821377281 132, -96.25 132 M96.25 132 C22.79602587764481 132, -50.65794824471038 132, -96.25 132 M-96.25 132 C-96.25 43.245209576294286, -96.25 -45.50958084741143, -96.25 -132 M-96.25 132 C-96.25 31.074582667506675, -96.25 -69.85083466498665, -96.25 -132" stroke="#9370DB" stroke-width="1.3" fill="none" stroke-dasharray="0 0" style=""/></g><g class="annotation-group text" transform="translate(0, -108)"/><g class="label-group text" transform="translate(-44.84375, -108)"><g class="label" style="font-weight: bolder" transform="translate(0,-12)"><foreignObject width="89.6875" height="24"><div xmlns="http://www.w3.org/1999/xhtml" style="display: table-cell; white-space: nowrap; line-height: 1.5; max-width: 130px; text-align: center;"><span class="nodeLabel markdown-node-label" style=""><p>FitnessClass</p></span></div></foreignObject></g></g><g class="members-group text" transform="translate(-84.25, -60)"><g class="label" style="" transform="translate(0,-12)"><foreignObject width="53.90625" height="24"><div xmlns="http://www.w3.org/1999/xhtml" style="display: table-cell; white-space: nowrap; line-height: 1.5; max-width: 105px; text-align: center;"><span class="nodeLabel markdown-node-label" style=""><p>+id: i64</p></span></div></foreignObject></g><g class="label" style="" transform="translate(0,12)"><foreignObject width="99.84375" height="24"><div xmlns="http://www.w3.org/1999/xhtml" style="display: table-cell; white-space: nowrap; line-height: 1.5; max-width: 146px; text-align: center;"><span class="nodeLabel markdown-node-label" style=""><p>+name: String</p></span></div></foreignObject></g><g class="label" style="" transform="translate(0,36)"><foreignObject width="108.890625" height="24"><div xmlns="http://www.w3.org/1999/xhtml" style="display: table-cell; white-space: nowrap; line-height: 1.5; max-width: 155px; text-align: center;"><span class="nodeLabel markdown-node-label" style=""><p>+trainerId: i64?</p></span></div></foreignObject></g><g class="label" style="" transform="translate(0,60)"><foreignObject width="123.65625" height="24"><div xmlns="http://www.w3.org/1999/xhtml" style="display: table-cell; white-space: nowrap; line-height: 1.5; max-width: 167px; text-align: center;"><span class="nodeLabel markdown-node-label" style=""><p>+schedule: String</p></span></div></foreignObject></g><g class="label" style="" transform="translate(0,84)"><foreignObject width="100.796875" height="24"><div xmlns="http://www.w3.org/1999/xhtml" style="display: table-cell; white-space: nowrap; line-height: 1.5; max-width: 146px; text-align: center;"><span class="nodeLabel markdown-node-label" style=""><p>+capacity: i64</p></span></div></foreignObject></g><g class="label" style="" transform="translate(0,108)"><foreignObject width="99.78125" height="24"><div xmlns="http://www.w3.org/1999/xhtml" style="display: table-cell; white-space: nowrap; line-height: 1.5; max-width: 145px; text-align: center;"><span class="nodeLabel markdown-node-label" style=""><p>+enrolled: i64</p></span></div></foreignObject></g><g class="label" style="" transform="translate(0,132)"><foreignObject width="95.40625" height="24"><div xmlns="http://www.w3.org/1999/xhtml" style="display: table-cell; white-space: nowrap; line-height: 1.5; max-width: 142px; text-align: center;"><span class="nodeLabel markdown-node-label" style=""><p>+level: String</p></span></div></foreignObject></g></g><g class="methods-group text" transform="translate(-84.25, 132)"/><g class="divider" style=""><path d="M-96.25 -84 C-40.13561197229823 -84, 15.978776055403543 -84, 96.25 -84 M-96.25 -84 C-35.74353514292179 -84, 24.762929714156414 -84, 96.25 -84" stroke="#9370DB" stroke-width="1.3" fill="none" stroke-dasharray="0 0" style=""/></g><g class="divider" style=""><path d="M-96.25 108 C-35.712510882048704 108, 24.82497823590259 108, 96.25 108 M-96.25 108 C-20.002463866888874 108, 56.24507226622225 108, 96.25 108" stroke="#9370DB" stroke-width="1.3" fill="none" stroke-dasharray="0 0" style=""/></g></g><g class="node default" id="classId-Booking-5" transform="translate(581.1328125, 732)"><g class="basic label-container"><path d="M-86.578125 -120 L86.578125 -120 L86.578125 120 L-86.578125 120" stroke="none" stroke-width="0" fill="#ECECFF" style=""/><path d="M-86.578125 -120 C-25.10472236490026 -120, 36.36868027019948 -120, 86.578125 -120 M-86.578125 -120 C-33.47422106699887 -120, 19.629682866002256 -120, 86.578125 -120 M86.578125 -120 C86.578125 -31.927783651705937, 86.578125 56.144432696588126, 86.578125 120 M86.578125 -120 C86.578125 -67.33850892247237, 86.578125 -14.677017844944743, 86.578125 120 M86.578125 120 C42.06555154190165 120, -2.4470219161967037 120, -86.578125 120 M86.578125 120 C29.635795996974302 120, -27.306533006051396 120, -86.578125 120 M-86.578125 120 C-86.578125 42.62856876328891, -86.578125 -34.74286247342218, -86.578125 -120 M-86.578125 120 C-86.578125 52.823992070915935, -86.578125 -14.35201585816813, -86.578125 -120" stroke="#9370DB" stroke-width="1.3" fill="none" stroke-dasharray="0 0" style=""/></g><g class="annotation-group text" transform="translate(0, -96)"/><g class="label-group text" transform="translate(-29.328125, -96)"><g class="label" style="font-weight: bolder" transform="translate(0,-12)"><foreignObject width="58.65625" height="24"><div xmlns="http://www.w3.org/1999/xhtml" style="display: table-cell; white-space: nowrap; line-height: 1.5; max-width: 105px; text-align: center;"><span class="nodeLabel markdown-node-label" style=""><p>Booking</p></span></div></foreignObject></g></g><g class="members-group text" transform="translate(-74.578125, -48)"><g class="label" style="" transform="translate(0,-12)"><foreignObject width="53.90625" height="24"><div xmlns="http://www.w3.org/1999/xhtml" style="display: table-cell; white-space: nowrap; line-height: 1.5; max-width: 105px; text-align: center;"><span class="nodeLabel markdown-node-label" style=""><p>+id: i64</p></span></div></foreignObject></g><g class="label" style="" transform="translate(0,12)"><foreignObject width="119.828125" height="24"><div xmlns="http://www.w3.org/1999/xhtml" style="display: table-cell; white-space: nowrap; line-height: 1.5; max-width: 163px; text-align: center;"><span class="nodeLabel markdown-node-label" style=""><p>+member: String</p></span></div></foreignObject></g><g class="label" style="" transform="translate(0,36)"><foreignObject width="93.671875" height="24"><div xmlns="http://www.w3.org/1999/xhtml" style="display: table-cell; white-space: nowrap; line-height: 1.5; max-width: 144px; text-align: center;"><span class="nodeLabel markdown-node-label" style=""><p>+classId: i64?</p></span></div></foreignObject></g><g class="label" style="" transform="translate(0,60)"><foreignObject width="93.078125" height="24"><div xmlns="http://www.w3.org/1999/xhtml" style="display: table-cell; white-space: nowrap; line-height: 1.5; max-width: 138px; text-align: center;"><span class="nodeLabel markdown-node-label" style=""><p>+date: String</p></span></div></foreignObject></g><g class="label" style="" transform="translate(0,84)"><foreignObject width="93.59375" height="24"><div xmlns="http://www.w3.org/1999/xhtml" style="display: table-cell; white-space: nowrap; line-height: 1.5; max-width: 139px; text-align: center;"><span class="nodeLabel markdown-node-label" style=""><p>+time: String</p></span></div></foreignObject></g><g class="label" style="" transform="translate(0,108)"><foreignObject width="103.46875" height="24"><div xmlns="http://www.w3.org/1999/xhtml" style="display: table-cell; white-space: nowrap; line-height: 1.5; max-width: 147px; text-align: center;"><span class="nodeLabel markdown-node-label" style=""><p>+status: String</p></span></div></foreignObject></g></g><g class="methods-group text" transform="translate(-74.578125, 120)"/><g class="divider" style=""><path d="M-86.578125 -72 C-25.5755947555761 -72, 35.4269354888478 -72, 86.578125 -72 M-86.578125 -72 C-28.148470194086364 -72, 30.28118461182727 -72, 86.578125 -72" stroke="#9370DB" stroke-width="1.3" fill="none" stroke-dasharray="0 0" style=""/></g><g class="divider" style=""><path d="M-86.578125 96 C-38.71203104206309 96, 9.154062915873823 96, 86.578125 96 M-86.578125 96 C-37.822833742311545 96, 10.93245751537691 96, 86.578125 96" stroke="#9370DB" stroke-width="1.3" fill="none" stroke-dasharray="0 0" style=""/></g></g><g class="node default" id="classId-Payment-6" transform="translate(334.515625, 732)"><g class="basic label-container"><path d="M-88.0234375 -120 L88.0234375 -120 L88.0234375 120 L-88.0234375 120" stroke="none" stroke-width="0" fill="#ECECFF" style=""/><path d="M-88.0234375 -120 C-45.30421049481218 -120, -2.5849834896243635 -120, 88.0234375 -120 M-88.0234375 -120 C-29.38831718520637 -120, 29.246803129587263 -120, 88.0234375 -120 M88.0234375 -120 C88.0234375 -34.78281389007746, 88.0234375 50.43437221984507, 88.0234375 120 M88.0234375 -120 C88.0234375 -68.85297775696824, 88.0234375 -17.705955513936487, 88.0234375 120 M88.0234375 120 C33.00769346258634 120, -22.008050574827323 120, -88.0234375 120 M88.0234375 120 C49.64380977153106 120, 11.264182043062121 120, -88.0234375 120 M-88.0234375 120 C-88.0234375 43.06407390808201, -88.0234375 -33.87185218383598, -88.0234375 -120 M-88.0234375 120 C-88.0234375 39.62584324563443, -88.0234375 -40.748313508731144, -88.0234375 -120" stroke="#9370DB" stroke-width="1.3" fill="none" stroke-dasharray="0 0" style=""/></g><g class="annotation-group text" transform="translate(0, -96)"/><g class="label-group text" transform="translate(-32.21875, -96)"><g class="label" style="font-weight: bolder" transform="translate(0,-12)"><foreignObject width="64.4375" height="24"><div xmlns="http://www.w3.org/1999/xhtml" style="display: table-cell; white-space: nowrap; line-height: 1.5; max-width: 106px; text-align: center;"><span class="nodeLabel markdown-node-label" style=""><p>Payment</p></span></div></foreignObject></g></g><g class="members-group text" transform="translate(-76.0234375, -48)"><g class="label" style="" transform="translate(0,-12)"><foreignObject width="53.90625" height="24"><div xmlns="http://www.w3.org/1999/xhtml" style="display: table-cell; white-space: nowrap; line-height: 1.5; max-width: 105px; text-align: center;"><span class="nodeLabel markdown-node-label" style=""><p>+id: i64</p></span></div></foreignObject></g><g class="label" style="" transform="translate(0,12)"><foreignObject width="119.828125" height="24"><div xmlns="http://www.w3.org/1999/xhtml" style="display: table-cell; white-space: nowrap; line-height: 1.5; max-width: 163px; text-align: center;"><span class="nodeLabel markdown-node-label" style=""><p>+member: String</p></span></div></foreignObject></g><g class="label" style="" transform="translate(0,36)"><foreignObject width="94.53125" height="24"><div xmlns="http://www.w3.org/1999/xhtml" style="display: table-cell; white-space: nowrap; line-height: 1.5; max-width: 140px; text-align: center;"><span class="nodeLabel markdown-node-label" style=""><p>+amount: i64</p></span></div></foreignObject></g><g class="label" style="" transform="translate(0,60)"><foreignObject width="115.28125" height="24"><div xmlns="http://www.w3.org/1999/xhtml" style="display: table-cell; white-space: nowrap; line-height: 1.5; max-width: 159px; text-align: center;"><span class="nodeLabel markdown-node-label" style=""><p>+method: String</p></span></div></foreignObject></g><g class="label" style="" transform="translate(0,84)"><foreignObject width="103.46875" height="24"><div xmlns="http://www.w3.org/1999/xhtml" style="display: table-cell; white-space: nowrap; line-height: 1.5; max-width: 147px; text-align: center;"><span class="nodeLabel markdown-node-label" style=""><p>+status: String</p></span></div></foreignObject></g><g class="label" style="" transform="translate(0,108)"><foreignObject width="111.09375" height="24"><div xmlns="http://www.w3.org/1999/xhtml" style="display: table-cell; white-space: nowrap; line-height: 1.5; max-width: 156px; text-align: center;"><span class="nodeLabel markdown-node-label" style=""><p>+receiptId: i64?</p></span></div></foreignObject></g></g><g class="methods-group text" transform="translate(-76.0234375, 120)"/><g class="divider" style=""><path d="M-88.0234375 -72 C-22.561106210599988 -72, 42.901225078800024 -72, 88.0234375 -72 M-88.0234375 -72 C-41.14401234770285 -72, 5.735412804594304 -72, 88.0234375 -72" stroke="#9370DB" stroke-width="1.3" fill="none" stroke-dasharray="0 0" style=""/></g><g class="divider" style=""><path d="M-88.0234375 96 C-24.76572531724289 96, 38.49198686551422 96, 88.0234375 96 M-88.0234375 96 C-52.68951518194942 96, -17.355592863898835 96, 88.0234375 96" stroke="#9370DB" stroke-width="1.3" fill="none" stroke-dasharray="0 0" style=""/></g></g><g class="node default" id="classId-Receipt-7" transform="translate(334.515625, 430)"><g class="basic label-container"><path d="M-92.05859375 -108 L92.05859375 -108 L92.05859375 108 L-92.05859375 108" stroke="none" stroke-width="0" fill="#ECECFF" style=""/><path d="M-92.05859375 -108 C-47.499028348948734 -108, -2.939462947897468 -108, 92.05859375 -108 M-92.05859375 -108 C-42.75840124721954 -108, 6.5417912555609234 -108, 92.05859375 -108 M92.05859375 -108 C92.05859375 -39.689622498906104, 92.05859375 28.620755002187792, 92.05859375 108 M92.05859375 -108 C92.05859375 -60.829128033013795, 92.05859375 -13.65825606602759, 92.05859375 108 M92.05859375 108 C33.37519249195154 108, -25.308208766096925 108, -92.05859375 108 M92.05859375 108 C40.93824169524405 108, -10.182110359511896 108, -92.05859375 108 M-92.05859375 108 C-92.05859375 61.55803677317686, -92.05859375 15.116073546353718, -92.05859375 -108 M-92.05859375 108 C-92.05859375 44.606242752760366, -92.05859375 -18.787514494479268, -92.05859375 -108" stroke="#9370DB" stroke-width="1.3" fill="none" stroke-dasharray="0 0" style=""/></g><g class="annotation-group text" transform="translate(0, -84)"/><g class="label-group text" transform="translate(-28.3984375, -84)"><g class="label" style="font-weight: bolder" transform="translate(0,-12)"><foreignObject width="56.796875" height="24"><div xmlns="http://www.w3.org/1999/xhtml" style="display: table-cell; white-space: nowrap; line-height: 1.5; max-width: 99px; text-align: center;"><span class="nodeLabel markdown-node-label" style=""><p>Receipt</p></span></div></foreignObject></g></g><g class="members-group text" transform="translate(-80.05859375, -36)"><g class="label" style="" transform="translate(0,-12)"><foreignObject width="53.90625" height="24"><div xmlns="http://www.w3.org/1999/xhtml" style="display: table-cell; white-space: nowrap; line-height: 1.5; max-width: 105px; text-align: center;"><span class="nodeLabel markdown-node-label" style=""><p>+id: i64</p></span></div></foreignObject></g><g class="label" style="" transform="translate(0,12)"><foreignObject width="112.953125" height="24"><div xmlns="http://www.w3.org/1999/xhtml" style="display: table-cell; white-space: nowrap; line-height: 1.5; max-width: 158px; text-align: center;"><span class="nodeLabel markdown-node-label" style=""><p>+memberId: i64</p></span></div></foreignObject></g><g class="label" style="" transform="translate(0,36)"><foreignObject width="74.828125" height="24"><div xmlns="http://www.w3.org/1999/xhtml" style="display: table-cell; white-space: nowrap; line-height: 1.5; max-width: 121px; text-align: center;"><span class="nodeLabel markdown-node-label" style=""><p>+total: i64</p></span></div></foreignObject></g><g class="label" style="" transform="translate(0,60)"><foreignObject width="131.71875" height="24"><div xmlns="http://www.w3.org/1999/xhtml" style="display: table-cell; white-space: nowrap; line-height: 1.5; max-width: 173px; text-align: center;"><span class="nodeLabel markdown-node-label" style=""><p>+createdAt: String</p></span></div></foreignObject></g><g class="label" style="" transform="translate(0,84)"><foreignObject width="93.078125" height="24"><div xmlns="http://www.w3.org/1999/xhtml" style="display: table-cell; white-space: nowrap; line-height: 1.5; max-width: 139px; text-align: center;"><span class="nodeLabel markdown-node-label" style=""><p>+note: String</p></span></div></foreignObject></g></g><g class="methods-group text" transform="translate(-80.05859375, 108)"/><g class="divider" style=""><path d="M-92.05859375 -60 C-37.69765235535628 -60, 16.663289039287434 -60, 92.05859375 -60 M-92.05859375 -60 C-38.20638232809993 -60, 15.645829093800145 -60, 92.05859375 -60" stroke="#9370DB" stroke-width="1.3" fill="none" stroke-dasharray="0 0" style=""/></g><g class="divider" style=""><path d="M-92.05859375 84 C-53.03035293857321 84, -14.002112127146418 84, 92.05859375 84 M-92.05859375 84 C-50.9786358053986 84, -9.898677860797207 84, 92.05859375 84" stroke="#9370DB" stroke-width="1.3" fill="none" stroke-dasharray="0 0" style=""/></g></g></g></g></g></svg>